%TF.GenerationSoftware,KiCad,Pcbnew,(5.1.10)-1*%
%TF.CreationDate,2021-12-23T21:02:22-05:00*%
%TF.ProjectId,Keypad,4b657970-6164-42e6-9b69-6361645f7063,rev?*%
%TF.SameCoordinates,Original*%
%TF.FileFunction,Legend,Bot*%
%TF.FilePolarity,Positive*%
%FSLAX46Y46*%
G04 Gerber Fmt 4.6, Leading zero omitted, Abs format (unit mm)*
G04 Created by KiCad (PCBNEW (5.1.10)-1) date 2021-12-23 21:02:22*
%MOMM*%
%LPD*%
G01*
G04 APERTURE LIST*
%ADD10C,0.300000*%
%ADD11C,0.150000*%
%ADD12C,0.120000*%
%ADD13C,0.250000*%
%ADD14R,1.800000X1.100000*%
%ADD15C,2.250000*%
%ADD16C,3.987800*%
%ADD17C,1.750000*%
%ADD18R,1.400000X1.200000*%
%ADD19R,2.350000X0.800000*%
%ADD20R,0.500000X1.400000*%
%ADD21R,0.550000X1.500000*%
%ADD22R,1.500000X0.550000*%
%ADD23R,1.200000X0.900000*%
G04 APERTURE END LIST*
D10*
X123275142Y-59963857D02*
X122775142Y-59963857D01*
X122560857Y-60749571D02*
X123275142Y-60749571D01*
X123275142Y-59249571D01*
X122560857Y-59249571D01*
X121703714Y-60749571D02*
X121846571Y-60678142D01*
X121918000Y-60535285D01*
X121918000Y-59249571D01*
X121132285Y-60749571D02*
X121132285Y-59749571D01*
X121132285Y-59249571D02*
X121203714Y-59321000D01*
X121132285Y-59392428D01*
X121060857Y-59321000D01*
X121132285Y-59249571D01*
X121132285Y-59392428D01*
X119775142Y-60749571D02*
X119775142Y-59963857D01*
X119846571Y-59821000D01*
X119989428Y-59749571D01*
X120275142Y-59749571D01*
X120418000Y-59821000D01*
X119775142Y-60678142D02*
X119918000Y-60749571D01*
X120275142Y-60749571D01*
X120418000Y-60678142D01*
X120489428Y-60535285D01*
X120489428Y-60392428D01*
X120418000Y-60249571D01*
X120275142Y-60178142D01*
X119918000Y-60178142D01*
X119775142Y-60106714D01*
X119132285Y-60678142D02*
X118989428Y-60749571D01*
X118703714Y-60749571D01*
X118560857Y-60678142D01*
X118489428Y-60535285D01*
X118489428Y-60463857D01*
X118560857Y-60321000D01*
X118703714Y-60249571D01*
X118918000Y-60249571D01*
X119060857Y-60178142D01*
X119132285Y-60035285D01*
X119132285Y-59963857D01*
X119060857Y-59821000D01*
X118918000Y-59749571D01*
X118703714Y-59749571D01*
X118560857Y-59821000D01*
X116703714Y-60749571D02*
X116703714Y-59249571D01*
X115846571Y-60749571D02*
X116489428Y-59892428D01*
X115846571Y-59249571D02*
X116703714Y-60106714D01*
X114989428Y-60749571D02*
X115132285Y-60678142D01*
X115203714Y-60606714D01*
X115275142Y-60463857D01*
X115275142Y-60035285D01*
X115203714Y-59892428D01*
X115132285Y-59821000D01*
X114989428Y-59749571D01*
X114775142Y-59749571D01*
X114632285Y-59821000D01*
X114560857Y-59892428D01*
X114489428Y-60035285D01*
X114489428Y-60463857D01*
X114560857Y-60606714D01*
X114632285Y-60678142D01*
X114775142Y-60749571D01*
X114989428Y-60749571D01*
X113203714Y-59749571D02*
X113203714Y-60749571D01*
X113846571Y-59749571D02*
X113846571Y-60535285D01*
X113775142Y-60678142D01*
X113632285Y-60749571D01*
X113418000Y-60749571D01*
X113275142Y-60678142D01*
X113203714Y-60606714D01*
X112489428Y-59749571D02*
X112489428Y-60749571D01*
X112489428Y-59892428D02*
X112418000Y-59821000D01*
X112275142Y-59749571D01*
X112060857Y-59749571D01*
X111918000Y-59821000D01*
X111846571Y-59963857D01*
X111846571Y-60749571D01*
X111346571Y-59749571D02*
X110775142Y-59749571D01*
X111132285Y-59249571D02*
X111132285Y-60535285D01*
X111060857Y-60678142D01*
X110918000Y-60749571D01*
X110775142Y-60749571D01*
X110060857Y-60749571D02*
X110203714Y-60678142D01*
X110275142Y-60606714D01*
X110346571Y-60463857D01*
X110346571Y-60035285D01*
X110275142Y-59892428D01*
X110203714Y-59821000D01*
X110060857Y-59749571D01*
X109846571Y-59749571D01*
X109703714Y-59821000D01*
X109632285Y-59892428D01*
X109560857Y-60035285D01*
X109560857Y-60463857D01*
X109632285Y-60606714D01*
X109703714Y-60678142D01*
X109846571Y-60749571D01*
X110060857Y-60749571D01*
X108275142Y-59749571D02*
X108275142Y-60749571D01*
X108918000Y-59749571D02*
X108918000Y-60535285D01*
X108846571Y-60678142D01*
X108703714Y-60749571D01*
X108489428Y-60749571D01*
X108346571Y-60678142D01*
X108275142Y-60606714D01*
X107560857Y-60749571D02*
X107560857Y-59749571D01*
X107560857Y-60035285D02*
X107489428Y-59892428D01*
X107418000Y-59821000D01*
X107275142Y-59749571D01*
X107132285Y-59749571D01*
X106632285Y-60749571D02*
X106632285Y-59749571D01*
X106632285Y-59249571D02*
X106703714Y-59321000D01*
X106632285Y-59392428D01*
X106560857Y-59321000D01*
X106632285Y-59249571D01*
X106632285Y-59392428D01*
X105989428Y-60678142D02*
X105846571Y-60749571D01*
X105560857Y-60749571D01*
X105418000Y-60678142D01*
X105346571Y-60535285D01*
X105346571Y-60463857D01*
X105418000Y-60321000D01*
X105560857Y-60249571D01*
X105775142Y-60249571D01*
X105918000Y-60178142D01*
X105989428Y-60035285D01*
X105989428Y-59963857D01*
X105918000Y-59821000D01*
X105775142Y-59749571D01*
X105560857Y-59749571D01*
X105418000Y-59821000D01*
X103560857Y-60178142D02*
X102418000Y-60178142D01*
X100560857Y-60749571D02*
X100560857Y-59249571D01*
X99703714Y-60749571D02*
X100346571Y-59892428D01*
X99703714Y-59249571D02*
X100560857Y-60106714D01*
X98489428Y-60678142D02*
X98632285Y-60749571D01*
X98918000Y-60749571D01*
X99060857Y-60678142D01*
X99132285Y-60535285D01*
X99132285Y-59963857D01*
X99060857Y-59821000D01*
X98918000Y-59749571D01*
X98632285Y-59749571D01*
X98489428Y-59821000D01*
X98418000Y-59963857D01*
X98418000Y-60106714D01*
X99132285Y-60249571D01*
X97918000Y-59749571D02*
X97560857Y-60749571D01*
X97203714Y-59749571D02*
X97560857Y-60749571D01*
X97703714Y-61106714D01*
X97775142Y-61178142D01*
X97918000Y-61249571D01*
X96632285Y-59749571D02*
X96632285Y-61249571D01*
X96632285Y-59821000D02*
X96489428Y-59749571D01*
X96203714Y-59749571D01*
X96060857Y-59821000D01*
X95989428Y-59892428D01*
X95918000Y-60035285D01*
X95918000Y-60463857D01*
X95989428Y-60606714D01*
X96060857Y-60678142D01*
X96203714Y-60749571D01*
X96489428Y-60749571D01*
X96632285Y-60678142D01*
X94632285Y-60749571D02*
X94632285Y-59963857D01*
X94703714Y-59821000D01*
X94846571Y-59749571D01*
X95132285Y-59749571D01*
X95275142Y-59821000D01*
X94632285Y-60678142D02*
X94775142Y-60749571D01*
X95132285Y-60749571D01*
X95275142Y-60678142D01*
X95346571Y-60535285D01*
X95346571Y-60392428D01*
X95275142Y-60249571D01*
X95132285Y-60178142D01*
X94775142Y-60178142D01*
X94632285Y-60106714D01*
X93275142Y-60749571D02*
X93275142Y-59249571D01*
X93275142Y-60678142D02*
X93418000Y-60749571D01*
X93703714Y-60749571D01*
X93846571Y-60678142D01*
X93918000Y-60606714D01*
X93989428Y-60463857D01*
X93989428Y-60035285D01*
X93918000Y-59892428D01*
X93846571Y-59821000D01*
X93703714Y-59749571D01*
X93418000Y-59749571D01*
X93275142Y-59821000D01*
X90632285Y-60749571D02*
X91489428Y-60749571D01*
X91060857Y-60749571D02*
X91060857Y-59249571D01*
X91203714Y-59463857D01*
X91346571Y-59606714D01*
X91489428Y-59678142D01*
X89989428Y-60606714D02*
X89918000Y-60678142D01*
X89989428Y-60749571D01*
X90060857Y-60678142D01*
X89989428Y-60606714D01*
X89989428Y-60749571D01*
X89346571Y-59392428D02*
X89275142Y-59321000D01*
X89132285Y-59249571D01*
X88775142Y-59249571D01*
X88632285Y-59321000D01*
X88560857Y-59392428D01*
X88489428Y-59535285D01*
X88489428Y-59678142D01*
X88560857Y-59892428D01*
X89418000Y-60749571D01*
X88489428Y-60749571D01*
X124396428Y-49129142D02*
X123253571Y-49129142D01*
X123825000Y-49700571D02*
X123825000Y-48557714D01*
X105346428Y-49129142D02*
X104203571Y-49129142D01*
X104775000Y-49700571D02*
X104775000Y-48557714D01*
X124396428Y-30079142D02*
X123253571Y-30079142D01*
X123825000Y-30650571D02*
X123825000Y-29507714D01*
X105600428Y-30206142D02*
X104457571Y-30206142D01*
X105029000Y-30777571D02*
X105029000Y-29634714D01*
D11*
%TO.C,SW1*%
X58658000Y-27559000D02*
G75*
G03*
X58658000Y-27559000I-1000000J0D01*
G01*
X55058000Y-24959000D02*
X55058000Y-30159000D01*
X60258000Y-24959000D02*
X55058000Y-24959000D01*
X60258000Y-30159000D02*
X60258000Y-24959000D01*
X55058000Y-30159000D02*
X60258000Y-30159000D01*
D12*
%TO.C,Y1*%
X80644750Y-26766250D02*
X80644750Y-30066250D01*
X80644750Y-30066250D02*
X76644750Y-30066250D01*
D11*
%TO.C,USB1*%
X62243000Y-55328000D02*
X60518000Y-55328000D01*
X56068000Y-55328000D02*
X54343000Y-55328000D01*
X54343000Y-56053000D02*
X54343000Y-55328000D01*
X62243000Y-56053000D02*
X62243000Y-55328000D01*
D13*
X60018000Y-54428000D02*
G75*
G03*
X60018000Y-54428000I-125000J0D01*
G01*
D11*
%TO.C,U1*%
X69437500Y-49434500D02*
X69437500Y-48859500D01*
X79787500Y-49434500D02*
X79787500Y-48759500D01*
X79787500Y-39084500D02*
X79787500Y-39759500D01*
X69437500Y-39084500D02*
X69437500Y-39759500D01*
X69437500Y-49434500D02*
X70112500Y-49434500D01*
X69437500Y-39084500D02*
X70112500Y-39084500D01*
X79787500Y-39084500D02*
X79112500Y-39084500D01*
X79787500Y-49434500D02*
X79112500Y-49434500D01*
X69437500Y-48859500D02*
X68162500Y-48859500D01*
D12*
%TO.C,R4*%
X84872500Y-49320814D02*
X84872500Y-48866686D01*
X83402500Y-49320814D02*
X83402500Y-48866686D01*
%TO.C,R3*%
X67336936Y-27913000D02*
X67791064Y-27913000D01*
X67336936Y-26443000D02*
X67791064Y-26443000D01*
%TO.C,R2*%
X54637000Y-50699936D02*
X54637000Y-51154064D01*
X56107000Y-50699936D02*
X56107000Y-51154064D01*
%TO.C,R1*%
X57558000Y-46485436D02*
X57558000Y-46939564D01*
X59028000Y-46485436D02*
X59028000Y-46939564D01*
%TO.C,D4*%
X124825000Y-54637500D02*
X122825000Y-54637500D01*
X122825000Y-54637500D02*
X122825000Y-50737500D01*
X124825000Y-54637500D02*
X124825000Y-50737500D01*
%TO.C,D3*%
X124825000Y-35587500D02*
X122825000Y-35587500D01*
X122825000Y-35587500D02*
X122825000Y-31687500D01*
X124825000Y-35587500D02*
X124825000Y-31687500D01*
%TO.C,D2*%
X105775000Y-54637500D02*
X103775000Y-54637500D01*
X103775000Y-54637500D02*
X103775000Y-50737500D01*
X105775000Y-54637500D02*
X105775000Y-50737500D01*
%TO.C,D1*%
X106029000Y-35841500D02*
X104029000Y-35841500D01*
X104029000Y-35841500D02*
X104029000Y-31941500D01*
X106029000Y-35841500D02*
X106029000Y-31941500D01*
%TO.C,C8*%
X71019998Y-54710000D02*
X71542502Y-54710000D01*
X71019998Y-53240000D02*
X71542502Y-53240000D01*
%TO.C,C7*%
X84872500Y-41380002D02*
X84872500Y-40857498D01*
X83402500Y-41380002D02*
X83402500Y-40857498D01*
%TO.C,C6*%
X72126248Y-35660000D02*
X72648752Y-35660000D01*
X72126248Y-34190000D02*
X72648752Y-34190000D01*
%TO.C,C5*%
X78686252Y-53240000D02*
X78163748Y-53240000D01*
X78686252Y-54710000D02*
X78163748Y-54710000D01*
%TO.C,C4*%
X65028750Y-48523752D02*
X65028750Y-48001248D01*
X63558750Y-48523752D02*
X63558750Y-48001248D01*
%TO.C,C3*%
X74744250Y-28643252D02*
X74744250Y-28120748D01*
X73274250Y-28643252D02*
X73274250Y-28120748D01*
%TO.C,C2*%
X82672250Y-28154998D02*
X82672250Y-28677502D01*
X84142250Y-28154998D02*
X84142250Y-28677502D01*
%TO.C,C1*%
X55345000Y-38300252D02*
X55345000Y-37777748D01*
X53875000Y-38300252D02*
X53875000Y-37777748D01*
%TO.C,SW1*%
D11*
X58991333Y-33678761D02*
X58848476Y-33726380D01*
X58610380Y-33726380D01*
X58515142Y-33678761D01*
X58467523Y-33631142D01*
X58419904Y-33535904D01*
X58419904Y-33440666D01*
X58467523Y-33345428D01*
X58515142Y-33297809D01*
X58610380Y-33250190D01*
X58800857Y-33202571D01*
X58896095Y-33154952D01*
X58943714Y-33107333D01*
X58991333Y-33012095D01*
X58991333Y-32916857D01*
X58943714Y-32821619D01*
X58896095Y-32774000D01*
X58800857Y-32726380D01*
X58562761Y-32726380D01*
X58419904Y-32774000D01*
X58086571Y-32726380D02*
X57848476Y-33726380D01*
X57658000Y-33012095D01*
X57467523Y-33726380D01*
X57229428Y-32726380D01*
X56324666Y-33726380D02*
X56896095Y-33726380D01*
X56610380Y-33726380D02*
X56610380Y-32726380D01*
X56705619Y-32869238D01*
X56800857Y-32964476D01*
X56896095Y-33012095D01*
%TO.C,Y1*%
X79120940Y-25942440D02*
X79120940Y-26418630D01*
X79454273Y-25418630D02*
X79120940Y-25942440D01*
X78787607Y-25418630D01*
X77930464Y-26418630D02*
X78501892Y-26418630D01*
X78216178Y-26418630D02*
X78216178Y-25418630D01*
X78311416Y-25561488D01*
X78406654Y-25656726D01*
X78501892Y-25704345D01*
%TO.C,USB1*%
X66204785Y-53480380D02*
X66204785Y-54289904D01*
X66157166Y-54385142D01*
X66109547Y-54432761D01*
X66014309Y-54480380D01*
X65823833Y-54480380D01*
X65728595Y-54432761D01*
X65680976Y-54385142D01*
X65633357Y-54289904D01*
X65633357Y-53480380D01*
X65204785Y-54432761D02*
X65061928Y-54480380D01*
X64823833Y-54480380D01*
X64728595Y-54432761D01*
X64680976Y-54385142D01*
X64633357Y-54289904D01*
X64633357Y-54194666D01*
X64680976Y-54099428D01*
X64728595Y-54051809D01*
X64823833Y-54004190D01*
X65014309Y-53956571D01*
X65109547Y-53908952D01*
X65157166Y-53861333D01*
X65204785Y-53766095D01*
X65204785Y-53670857D01*
X65157166Y-53575619D01*
X65109547Y-53528000D01*
X65014309Y-53480380D01*
X64776214Y-53480380D01*
X64633357Y-53528000D01*
X63871452Y-53956571D02*
X63728595Y-54004190D01*
X63680976Y-54051809D01*
X63633357Y-54147047D01*
X63633357Y-54289904D01*
X63680976Y-54385142D01*
X63728595Y-54432761D01*
X63823833Y-54480380D01*
X64204785Y-54480380D01*
X64204785Y-53480380D01*
X63871452Y-53480380D01*
X63776214Y-53528000D01*
X63728595Y-53575619D01*
X63680976Y-53670857D01*
X63680976Y-53766095D01*
X63728595Y-53861333D01*
X63776214Y-53908952D01*
X63871452Y-53956571D01*
X64204785Y-53956571D01*
X62680976Y-54480380D02*
X63252404Y-54480380D01*
X62966690Y-54480380D02*
X62966690Y-53480380D01*
X63061928Y-53623238D01*
X63157166Y-53718476D01*
X63252404Y-53766095D01*
X75474285Y-67376523D02*
X75474285Y-68404619D01*
X75413809Y-68525571D01*
X75353333Y-68586047D01*
X75232380Y-68646523D01*
X74990476Y-68646523D01*
X74869523Y-68586047D01*
X74809047Y-68525571D01*
X74748571Y-68404619D01*
X74748571Y-67376523D01*
X74264761Y-67376523D02*
X73418095Y-68646523D01*
X73418095Y-67376523D02*
X74264761Y-68646523D01*
X72390000Y-67376523D02*
X72631904Y-67376523D01*
X72752857Y-67437000D01*
X72813333Y-67497476D01*
X72934285Y-67678904D01*
X72994761Y-67920809D01*
X72994761Y-68404619D01*
X72934285Y-68525571D01*
X72873809Y-68586047D01*
X72752857Y-68646523D01*
X72510952Y-68646523D01*
X72390000Y-68586047D01*
X72329523Y-68525571D01*
X72269047Y-68404619D01*
X72269047Y-68102238D01*
X72329523Y-67981285D01*
X72390000Y-67920809D01*
X72510952Y-67860333D01*
X72752857Y-67860333D01*
X72873809Y-67920809D01*
X72934285Y-67981285D01*
X72994761Y-68102238D01*
X71482857Y-67376523D02*
X71361904Y-67376523D01*
X71240952Y-67437000D01*
X71180476Y-67497476D01*
X71120000Y-67618428D01*
X71059523Y-67860333D01*
X71059523Y-68162714D01*
X71120000Y-68404619D01*
X71180476Y-68525571D01*
X71240952Y-68586047D01*
X71361904Y-68646523D01*
X71482857Y-68646523D01*
X71603809Y-68586047D01*
X71664285Y-68525571D01*
X71724761Y-68404619D01*
X71785238Y-68162714D01*
X71785238Y-67860333D01*
X71724761Y-67618428D01*
X71664285Y-67497476D01*
X71603809Y-67437000D01*
X71482857Y-67376523D01*
X70575714Y-68586047D02*
X70394285Y-68646523D01*
X70091904Y-68646523D01*
X69970952Y-68586047D01*
X69910476Y-68525571D01*
X69850000Y-68404619D01*
X69850000Y-68283666D01*
X69910476Y-68162714D01*
X69970952Y-68102238D01*
X70091904Y-68041761D01*
X70333809Y-67981285D01*
X70454761Y-67920809D01*
X70515238Y-67860333D01*
X70575714Y-67739380D01*
X70575714Y-67618428D01*
X70515238Y-67497476D01*
X70454761Y-67437000D01*
X70333809Y-67376523D01*
X70031428Y-67376523D01*
X69850000Y-67437000D01*
X68580000Y-68525571D02*
X68640476Y-68586047D01*
X68821904Y-68646523D01*
X68942857Y-68646523D01*
X69124285Y-68586047D01*
X69245238Y-68465095D01*
X69305714Y-68344142D01*
X69366190Y-68102238D01*
X69366190Y-67920809D01*
X69305714Y-67678904D01*
X69245238Y-67557952D01*
X69124285Y-67437000D01*
X68942857Y-67376523D01*
X68821904Y-67376523D01*
X68640476Y-67437000D01*
X68580000Y-67497476D01*
X68035714Y-68162714D02*
X67068095Y-68162714D01*
X66463333Y-68646523D02*
X66463333Y-67376523D01*
X66040000Y-68283666D01*
X65616666Y-67376523D01*
X65616666Y-68646523D01*
X64588571Y-67981285D02*
X64407142Y-68041761D01*
X64346666Y-68102238D01*
X64286190Y-68223190D01*
X64286190Y-68404619D01*
X64346666Y-68525571D01*
X64407142Y-68586047D01*
X64528095Y-68646523D01*
X65011904Y-68646523D01*
X65011904Y-67376523D01*
X64588571Y-67376523D01*
X64467619Y-67437000D01*
X64407142Y-67497476D01*
X64346666Y-67618428D01*
X64346666Y-67739380D01*
X64407142Y-67860333D01*
X64467619Y-67920809D01*
X64588571Y-67981285D01*
X65011904Y-67981285D01*
X63741904Y-68162714D02*
X62774285Y-68162714D01*
X61564761Y-67376523D02*
X62169523Y-67376523D01*
X62230000Y-67981285D01*
X62169523Y-67920809D01*
X62048571Y-67860333D01*
X61746190Y-67860333D01*
X61625238Y-67920809D01*
X61564761Y-67981285D01*
X61504285Y-68102238D01*
X61504285Y-68404619D01*
X61564761Y-68525571D01*
X61625238Y-68586047D01*
X61746190Y-68646523D01*
X62048571Y-68646523D01*
X62169523Y-68586047D01*
X62230000Y-68525571D01*
X61020476Y-68586047D02*
X60839047Y-68646523D01*
X60536666Y-68646523D01*
X60415714Y-68586047D01*
X60355238Y-68525571D01*
X60294761Y-68404619D01*
X60294761Y-68283666D01*
X60355238Y-68162714D01*
X60415714Y-68102238D01*
X60536666Y-68041761D01*
X60778571Y-67981285D01*
X60899523Y-67920809D01*
X60960000Y-67860333D01*
X61020476Y-67739380D01*
X61020476Y-67618428D01*
X60960000Y-67497476D01*
X60899523Y-67437000D01*
X60778571Y-67376523D01*
X60476190Y-67376523D01*
X60294761Y-67437000D01*
X59569047Y-67920809D02*
X59690000Y-67860333D01*
X59750476Y-67799857D01*
X59810952Y-67678904D01*
X59810952Y-67618428D01*
X59750476Y-67497476D01*
X59690000Y-67437000D01*
X59569047Y-67376523D01*
X59327142Y-67376523D01*
X59206190Y-67437000D01*
X59145714Y-67497476D01*
X59085238Y-67618428D01*
X59085238Y-67678904D01*
X59145714Y-67799857D01*
X59206190Y-67860333D01*
X59327142Y-67920809D01*
X59569047Y-67920809D01*
X59690000Y-67981285D01*
X59750476Y-68041761D01*
X59810952Y-68162714D01*
X59810952Y-68404619D01*
X59750476Y-68525571D01*
X59690000Y-68586047D01*
X59569047Y-68646523D01*
X59327142Y-68646523D01*
X59206190Y-68586047D01*
X59145714Y-68525571D01*
X59085238Y-68404619D01*
X59085238Y-68162714D01*
X59145714Y-68041761D01*
X59206190Y-67981285D01*
X59327142Y-67920809D01*
%TO.C,U1*%
X75374404Y-51161880D02*
X75374404Y-51971404D01*
X75326785Y-52066642D01*
X75279166Y-52114261D01*
X75183928Y-52161880D01*
X74993452Y-52161880D01*
X74898214Y-52114261D01*
X74850595Y-52066642D01*
X74802976Y-51971404D01*
X74802976Y-51161880D01*
X73802976Y-52161880D02*
X74374404Y-52161880D01*
X74088690Y-52161880D02*
X74088690Y-51161880D01*
X74183928Y-51304738D01*
X74279166Y-51399976D01*
X74374404Y-51447595D01*
%TO.C,R4*%
X85335119Y-49260416D02*
X85811309Y-49593750D01*
X85335119Y-49831845D02*
X86335119Y-49831845D01*
X86335119Y-49450892D01*
X86287500Y-49355654D01*
X86239880Y-49308035D01*
X86144642Y-49260416D01*
X86001785Y-49260416D01*
X85906547Y-49308035D01*
X85858928Y-49355654D01*
X85811309Y-49450892D01*
X85811309Y-49831845D01*
X86001785Y-48403273D02*
X85335119Y-48403273D01*
X86382738Y-48641369D02*
X85668452Y-48879464D01*
X85668452Y-48260416D01*
%TO.C,R3*%
X67730666Y-29280380D02*
X68064000Y-28804190D01*
X68302095Y-29280380D02*
X68302095Y-28280380D01*
X67921142Y-28280380D01*
X67825904Y-28328000D01*
X67778285Y-28375619D01*
X67730666Y-28470857D01*
X67730666Y-28613714D01*
X67778285Y-28708952D01*
X67825904Y-28756571D01*
X67921142Y-28804190D01*
X68302095Y-28804190D01*
X67397333Y-28280380D02*
X66778285Y-28280380D01*
X67111619Y-28661333D01*
X66968761Y-28661333D01*
X66873523Y-28708952D01*
X66825904Y-28756571D01*
X66778285Y-28851809D01*
X66778285Y-29089904D01*
X66825904Y-29185142D01*
X66873523Y-29232761D01*
X66968761Y-29280380D01*
X67254476Y-29280380D01*
X67349714Y-29232761D01*
X67397333Y-29185142D01*
%TO.C,R2*%
X54174380Y-50760333D02*
X53698190Y-50427000D01*
X54174380Y-50188904D02*
X53174380Y-50188904D01*
X53174380Y-50569857D01*
X53222000Y-50665095D01*
X53269619Y-50712714D01*
X53364857Y-50760333D01*
X53507714Y-50760333D01*
X53602952Y-50712714D01*
X53650571Y-50665095D01*
X53698190Y-50569857D01*
X53698190Y-50188904D01*
X53269619Y-51141285D02*
X53222000Y-51188904D01*
X53174380Y-51284142D01*
X53174380Y-51522238D01*
X53222000Y-51617476D01*
X53269619Y-51665095D01*
X53364857Y-51712714D01*
X53460095Y-51712714D01*
X53602952Y-51665095D01*
X54174380Y-51093666D01*
X54174380Y-51712714D01*
%TO.C,R1*%
X57095380Y-46545833D02*
X56619190Y-46212500D01*
X57095380Y-45974404D02*
X56095380Y-45974404D01*
X56095380Y-46355357D01*
X56143000Y-46450595D01*
X56190619Y-46498214D01*
X56285857Y-46545833D01*
X56428714Y-46545833D01*
X56523952Y-46498214D01*
X56571571Y-46450595D01*
X56619190Y-46355357D01*
X56619190Y-45974404D01*
X57095380Y-47498214D02*
X57095380Y-46926785D01*
X57095380Y-47212500D02*
X56095380Y-47212500D01*
X56238238Y-47117261D01*
X56333476Y-47022023D01*
X56381095Y-46926785D01*
%TO.C,D4*%
X124404380Y-55014904D02*
X123404380Y-55014904D01*
X123404380Y-55253000D01*
X123452000Y-55395857D01*
X123547238Y-55491095D01*
X123642476Y-55538714D01*
X123832952Y-55586333D01*
X123975809Y-55586333D01*
X124166285Y-55538714D01*
X124261523Y-55491095D01*
X124356761Y-55395857D01*
X124404380Y-55253000D01*
X124404380Y-55014904D01*
X123737714Y-56443476D02*
X124404380Y-56443476D01*
X123356761Y-56205380D02*
X124071047Y-55967285D01*
X124071047Y-56586333D01*
%TO.C,D3*%
X124404380Y-36091904D02*
X123404380Y-36091904D01*
X123404380Y-36330000D01*
X123452000Y-36472857D01*
X123547238Y-36568095D01*
X123642476Y-36615714D01*
X123832952Y-36663333D01*
X123975809Y-36663333D01*
X124166285Y-36615714D01*
X124261523Y-36568095D01*
X124356761Y-36472857D01*
X124404380Y-36330000D01*
X124404380Y-36091904D01*
X123404380Y-36996666D02*
X123404380Y-37615714D01*
X123785333Y-37282380D01*
X123785333Y-37425238D01*
X123832952Y-37520476D01*
X123880571Y-37568095D01*
X123975809Y-37615714D01*
X124213904Y-37615714D01*
X124309142Y-37568095D01*
X124356761Y-37520476D01*
X124404380Y-37425238D01*
X124404380Y-37139523D01*
X124356761Y-37044285D01*
X124309142Y-36996666D01*
%TO.C,D2*%
X105354380Y-55141904D02*
X104354380Y-55141904D01*
X104354380Y-55380000D01*
X104402000Y-55522857D01*
X104497238Y-55618095D01*
X104592476Y-55665714D01*
X104782952Y-55713333D01*
X104925809Y-55713333D01*
X105116285Y-55665714D01*
X105211523Y-55618095D01*
X105306761Y-55522857D01*
X105354380Y-55380000D01*
X105354380Y-55141904D01*
X104449619Y-56094285D02*
X104402000Y-56141904D01*
X104354380Y-56237142D01*
X104354380Y-56475238D01*
X104402000Y-56570476D01*
X104449619Y-56618095D01*
X104544857Y-56665714D01*
X104640095Y-56665714D01*
X104782952Y-56618095D01*
X105354380Y-56046666D01*
X105354380Y-56665714D01*
%TO.C,D1*%
X105481380Y-36218904D02*
X104481380Y-36218904D01*
X104481380Y-36457000D01*
X104529000Y-36599857D01*
X104624238Y-36695095D01*
X104719476Y-36742714D01*
X104909952Y-36790333D01*
X105052809Y-36790333D01*
X105243285Y-36742714D01*
X105338523Y-36695095D01*
X105433761Y-36599857D01*
X105481380Y-36457000D01*
X105481380Y-36218904D01*
X105481380Y-37742714D02*
X105481380Y-37171285D01*
X105481380Y-37457000D02*
X104481380Y-37457000D01*
X104624238Y-37361761D01*
X104719476Y-37266523D01*
X104767095Y-37171285D01*
%TO.C,C8*%
X71447916Y-56012142D02*
X71495535Y-56059761D01*
X71638392Y-56107380D01*
X71733630Y-56107380D01*
X71876488Y-56059761D01*
X71971726Y-55964523D01*
X72019345Y-55869285D01*
X72066964Y-55678809D01*
X72066964Y-55535952D01*
X72019345Y-55345476D01*
X71971726Y-55250238D01*
X71876488Y-55155000D01*
X71733630Y-55107380D01*
X71638392Y-55107380D01*
X71495535Y-55155000D01*
X71447916Y-55202619D01*
X70876488Y-55535952D02*
X70971726Y-55488333D01*
X71019345Y-55440714D01*
X71066964Y-55345476D01*
X71066964Y-55297857D01*
X71019345Y-55202619D01*
X70971726Y-55155000D01*
X70876488Y-55107380D01*
X70686011Y-55107380D01*
X70590773Y-55155000D01*
X70543154Y-55202619D01*
X70495535Y-55297857D01*
X70495535Y-55345476D01*
X70543154Y-55440714D01*
X70590773Y-55488333D01*
X70686011Y-55535952D01*
X70876488Y-55535952D01*
X70971726Y-55583571D01*
X71019345Y-55631190D01*
X71066964Y-55726428D01*
X71066964Y-55916904D01*
X71019345Y-56012142D01*
X70971726Y-56059761D01*
X70876488Y-56107380D01*
X70686011Y-56107380D01*
X70590773Y-56059761D01*
X70543154Y-56012142D01*
X70495535Y-55916904D01*
X70495535Y-55726428D01*
X70543154Y-55631190D01*
X70590773Y-55583571D01*
X70686011Y-55535952D01*
%TO.C,C7*%
X85460357Y-41285416D02*
X85412738Y-41333035D01*
X85365119Y-41475892D01*
X85365119Y-41571130D01*
X85412738Y-41713988D01*
X85507976Y-41809226D01*
X85603214Y-41856845D01*
X85793690Y-41904464D01*
X85936547Y-41904464D01*
X86127023Y-41856845D01*
X86222261Y-41809226D01*
X86317500Y-41713988D01*
X86365119Y-41571130D01*
X86365119Y-41475892D01*
X86317500Y-41333035D01*
X86269880Y-41285416D01*
X86365119Y-40952083D02*
X86365119Y-40285416D01*
X85365119Y-40713988D01*
%TO.C,C6*%
X72554166Y-36962142D02*
X72601785Y-37009761D01*
X72744642Y-37057380D01*
X72839880Y-37057380D01*
X72982738Y-37009761D01*
X73077976Y-36914523D01*
X73125595Y-36819285D01*
X73173214Y-36628809D01*
X73173214Y-36485952D01*
X73125595Y-36295476D01*
X73077976Y-36200238D01*
X72982738Y-36105000D01*
X72839880Y-36057380D01*
X72744642Y-36057380D01*
X72601785Y-36105000D01*
X72554166Y-36152619D01*
X71697023Y-36057380D02*
X71887500Y-36057380D01*
X71982738Y-36105000D01*
X72030357Y-36152619D01*
X72125595Y-36295476D01*
X72173214Y-36485952D01*
X72173214Y-36866904D01*
X72125595Y-36962142D01*
X72077976Y-37009761D01*
X71982738Y-37057380D01*
X71792261Y-37057380D01*
X71697023Y-37009761D01*
X71649404Y-36962142D01*
X71601785Y-36866904D01*
X71601785Y-36628809D01*
X71649404Y-36533571D01*
X71697023Y-36485952D01*
X71792261Y-36438333D01*
X71982738Y-36438333D01*
X72077976Y-36485952D01*
X72125595Y-36533571D01*
X72173214Y-36628809D01*
%TO.C,C5*%
X78591666Y-52652142D02*
X78639285Y-52699761D01*
X78782142Y-52747380D01*
X78877380Y-52747380D01*
X79020238Y-52699761D01*
X79115476Y-52604523D01*
X79163095Y-52509285D01*
X79210714Y-52318809D01*
X79210714Y-52175952D01*
X79163095Y-51985476D01*
X79115476Y-51890238D01*
X79020238Y-51795000D01*
X78877380Y-51747380D01*
X78782142Y-51747380D01*
X78639285Y-51795000D01*
X78591666Y-51842619D01*
X77686904Y-51747380D02*
X78163095Y-51747380D01*
X78210714Y-52223571D01*
X78163095Y-52175952D01*
X78067857Y-52128333D01*
X77829761Y-52128333D01*
X77734523Y-52175952D01*
X77686904Y-52223571D01*
X77639285Y-52318809D01*
X77639285Y-52556904D01*
X77686904Y-52652142D01*
X77734523Y-52699761D01*
X77829761Y-52747380D01*
X78067857Y-52747380D01*
X78163095Y-52699761D01*
X78210714Y-52652142D01*
%TO.C,C4*%
X66330892Y-48095833D02*
X66378511Y-48048214D01*
X66426130Y-47905357D01*
X66426130Y-47810119D01*
X66378511Y-47667261D01*
X66283273Y-47572023D01*
X66188035Y-47524404D01*
X65997559Y-47476785D01*
X65854702Y-47476785D01*
X65664226Y-47524404D01*
X65568988Y-47572023D01*
X65473750Y-47667261D01*
X65426130Y-47810119D01*
X65426130Y-47905357D01*
X65473750Y-48048214D01*
X65521369Y-48095833D01*
X65759464Y-48952976D02*
X66426130Y-48952976D01*
X65378511Y-48714880D02*
X66092797Y-48476785D01*
X66092797Y-49095833D01*
%TO.C,C3*%
X76046392Y-28215333D02*
X76094011Y-28167714D01*
X76141630Y-28024857D01*
X76141630Y-27929619D01*
X76094011Y-27786761D01*
X75998773Y-27691523D01*
X75903535Y-27643904D01*
X75713059Y-27596285D01*
X75570202Y-27596285D01*
X75379726Y-27643904D01*
X75284488Y-27691523D01*
X75189250Y-27786761D01*
X75141630Y-27929619D01*
X75141630Y-28024857D01*
X75189250Y-28167714D01*
X75236869Y-28215333D01*
X75141630Y-28548666D02*
X75141630Y-29167714D01*
X75522583Y-28834380D01*
X75522583Y-28977238D01*
X75570202Y-29072476D01*
X75617821Y-29120095D01*
X75713059Y-29167714D01*
X75951154Y-29167714D01*
X76046392Y-29120095D01*
X76094011Y-29072476D01*
X76141630Y-28977238D01*
X76141630Y-28691523D01*
X76094011Y-28596285D01*
X76046392Y-28548666D01*
%TO.C,C2*%
X82084392Y-28249583D02*
X82132011Y-28201964D01*
X82179630Y-28059107D01*
X82179630Y-27963869D01*
X82132011Y-27821011D01*
X82036773Y-27725773D01*
X81941535Y-27678154D01*
X81751059Y-27630535D01*
X81608202Y-27630535D01*
X81417726Y-27678154D01*
X81322488Y-27725773D01*
X81227250Y-27821011D01*
X81179630Y-27963869D01*
X81179630Y-28059107D01*
X81227250Y-28201964D01*
X81274869Y-28249583D01*
X81274869Y-28630535D02*
X81227250Y-28678154D01*
X81179630Y-28773392D01*
X81179630Y-29011488D01*
X81227250Y-29106726D01*
X81274869Y-29154345D01*
X81370107Y-29201964D01*
X81465345Y-29201964D01*
X81608202Y-29154345D01*
X82179630Y-28582916D01*
X82179630Y-29201964D01*
%TO.C,C1*%
X56647142Y-37872333D02*
X56694761Y-37824714D01*
X56742380Y-37681857D01*
X56742380Y-37586619D01*
X56694761Y-37443761D01*
X56599523Y-37348523D01*
X56504285Y-37300904D01*
X56313809Y-37253285D01*
X56170952Y-37253285D01*
X55980476Y-37300904D01*
X55885238Y-37348523D01*
X55790000Y-37443761D01*
X55742380Y-37586619D01*
X55742380Y-37681857D01*
X55790000Y-37824714D01*
X55837619Y-37872333D01*
X56742380Y-38824714D02*
X56742380Y-38253285D01*
X56742380Y-38539000D02*
X55742380Y-38539000D01*
X55885238Y-38443761D01*
X55980476Y-38348523D01*
X56028095Y-38253285D01*
%TD*%
%LPC*%
D14*
%TO.C,SW1*%
X54558000Y-25709000D03*
X60758000Y-29409000D03*
X54558000Y-29409000D03*
X60758000Y-25709000D03*
%TD*%
D15*
%TO.C,K2*%
X99377500Y-47307500D03*
D16*
X96837500Y-52387500D03*
D15*
X93027500Y-49847500D03*
D17*
X91757500Y-52387500D03*
X101917500Y-52387500D03*
%TD*%
D18*
%TO.C,Y1*%
X79744750Y-27566250D03*
X77544750Y-27566250D03*
X77544750Y-29266250D03*
X79744750Y-29266250D03*
%TD*%
D19*
%TO.C,USB1*%
X55618000Y-61028000D03*
X60968000Y-61028000D03*
D20*
X56693000Y-55828000D03*
X57493000Y-55828000D03*
X58293000Y-55828000D03*
X59093000Y-55828000D03*
X59893000Y-55828000D03*
%TD*%
D21*
%TO.C,U1*%
X70612500Y-49959500D03*
X71412500Y-49959500D03*
X72212500Y-49959500D03*
X73012500Y-49959500D03*
X73812500Y-49959500D03*
X74612500Y-49959500D03*
X75412500Y-49959500D03*
X76212500Y-49959500D03*
X77012500Y-49959500D03*
X77812500Y-49959500D03*
X78612500Y-49959500D03*
D22*
X80312500Y-48259500D03*
X80312500Y-47459500D03*
X80312500Y-46659500D03*
X80312500Y-45859500D03*
X80312500Y-45059500D03*
X80312500Y-44259500D03*
X80312500Y-43459500D03*
X80312500Y-42659500D03*
X80312500Y-41859500D03*
X80312500Y-41059500D03*
X80312500Y-40259500D03*
D21*
X78612500Y-38559500D03*
X77812500Y-38559500D03*
X77012500Y-38559500D03*
X76212500Y-38559500D03*
X75412500Y-38559500D03*
X74612500Y-38559500D03*
X73812500Y-38559500D03*
X73012500Y-38559500D03*
X72212500Y-38559500D03*
X71412500Y-38559500D03*
X70612500Y-38559500D03*
D22*
X68912500Y-40259500D03*
X68912500Y-41059500D03*
X68912500Y-41859500D03*
X68912500Y-42659500D03*
X68912500Y-43459500D03*
X68912500Y-44259500D03*
X68912500Y-45059500D03*
X68912500Y-45859500D03*
X68912500Y-46659500D03*
X68912500Y-47459500D03*
X68912500Y-48259500D03*
%TD*%
%TO.C,R4*%
G36*
G01*
X84587501Y-48693750D02*
X83687499Y-48693750D01*
G75*
G02*
X83437500Y-48443751I0J249999D01*
G01*
X83437500Y-47918749D01*
G75*
G02*
X83687499Y-47668750I249999J0D01*
G01*
X84587501Y-47668750D01*
G75*
G02*
X84837500Y-47918749I0J-249999D01*
G01*
X84837500Y-48443751D01*
G75*
G02*
X84587501Y-48693750I-249999J0D01*
G01*
G37*
G36*
G01*
X84587501Y-50518750D02*
X83687499Y-50518750D01*
G75*
G02*
X83437500Y-50268751I0J249999D01*
G01*
X83437500Y-49743749D01*
G75*
G02*
X83687499Y-49493750I249999J0D01*
G01*
X84587501Y-49493750D01*
G75*
G02*
X84837500Y-49743749I0J-249999D01*
G01*
X84837500Y-50268751D01*
G75*
G02*
X84587501Y-50518750I-249999J0D01*
G01*
G37*
%TD*%
%TO.C,R3*%
G36*
G01*
X67964000Y-27628001D02*
X67964000Y-26727999D01*
G75*
G02*
X68213999Y-26478000I249999J0D01*
G01*
X68739001Y-26478000D01*
G75*
G02*
X68989000Y-26727999I0J-249999D01*
G01*
X68989000Y-27628001D01*
G75*
G02*
X68739001Y-27878000I-249999J0D01*
G01*
X68213999Y-27878000D01*
G75*
G02*
X67964000Y-27628001I0J249999D01*
G01*
G37*
G36*
G01*
X66139000Y-27628001D02*
X66139000Y-26727999D01*
G75*
G02*
X66388999Y-26478000I249999J0D01*
G01*
X66914001Y-26478000D01*
G75*
G02*
X67164000Y-26727999I0J-249999D01*
G01*
X67164000Y-27628001D01*
G75*
G02*
X66914001Y-27878000I-249999J0D01*
G01*
X66388999Y-27878000D01*
G75*
G02*
X66139000Y-27628001I0J249999D01*
G01*
G37*
%TD*%
%TO.C,R2*%
G36*
G01*
X54921999Y-51327000D02*
X55822001Y-51327000D01*
G75*
G02*
X56072000Y-51576999I0J-249999D01*
G01*
X56072000Y-52102001D01*
G75*
G02*
X55822001Y-52352000I-249999J0D01*
G01*
X54921999Y-52352000D01*
G75*
G02*
X54672000Y-52102001I0J249999D01*
G01*
X54672000Y-51576999D01*
G75*
G02*
X54921999Y-51327000I249999J0D01*
G01*
G37*
G36*
G01*
X54921999Y-49502000D02*
X55822001Y-49502000D01*
G75*
G02*
X56072000Y-49751999I0J-249999D01*
G01*
X56072000Y-50277001D01*
G75*
G02*
X55822001Y-50527000I-249999J0D01*
G01*
X54921999Y-50527000D01*
G75*
G02*
X54672000Y-50277001I0J249999D01*
G01*
X54672000Y-49751999D01*
G75*
G02*
X54921999Y-49502000I249999J0D01*
G01*
G37*
%TD*%
%TO.C,R1*%
G36*
G01*
X57842999Y-47112500D02*
X58743001Y-47112500D01*
G75*
G02*
X58993000Y-47362499I0J-249999D01*
G01*
X58993000Y-47887501D01*
G75*
G02*
X58743001Y-48137500I-249999J0D01*
G01*
X57842999Y-48137500D01*
G75*
G02*
X57593000Y-47887501I0J249999D01*
G01*
X57593000Y-47362499D01*
G75*
G02*
X57842999Y-47112500I249999J0D01*
G01*
G37*
G36*
G01*
X57842999Y-45287500D02*
X58743001Y-45287500D01*
G75*
G02*
X58993000Y-45537499I0J-249999D01*
G01*
X58993000Y-46062501D01*
G75*
G02*
X58743001Y-46312500I-249999J0D01*
G01*
X57842999Y-46312500D01*
G75*
G02*
X57593000Y-46062501I0J249999D01*
G01*
X57593000Y-45537499D01*
G75*
G02*
X57842999Y-45287500I249999J0D01*
G01*
G37*
%TD*%
D15*
%TO.C,K4*%
X118427500Y-47307500D03*
D16*
X115887500Y-52387500D03*
D15*
X112077500Y-49847500D03*
D17*
X110807500Y-52387500D03*
X120967500Y-52387500D03*
%TD*%
D15*
%TO.C,K3*%
X118427500Y-28257500D03*
D16*
X115887500Y-33337500D03*
D15*
X112077500Y-30797500D03*
D17*
X110807500Y-33337500D03*
X120967500Y-33337500D03*
%TD*%
D15*
%TO.C,K1*%
X99377500Y-28257500D03*
D16*
X96837500Y-33337500D03*
D15*
X93027500Y-30797500D03*
D17*
X91757500Y-33337500D03*
X101917500Y-33337500D03*
%TD*%
D23*
%TO.C,D4*%
X123825000Y-50737500D03*
X123825000Y-54037500D03*
%TD*%
%TO.C,D3*%
X123825000Y-31687500D03*
X123825000Y-34987500D03*
%TD*%
%TO.C,D2*%
X104775000Y-50737500D03*
X104775000Y-54037500D03*
%TD*%
%TO.C,D1*%
X105029000Y-31941500D03*
X105029000Y-35241500D03*
%TD*%
%TO.C,C8*%
G36*
G01*
X71731250Y-54450000D02*
X71731250Y-53500000D01*
G75*
G02*
X71981250Y-53250000I250000J0D01*
G01*
X72481250Y-53250000D01*
G75*
G02*
X72731250Y-53500000I0J-250000D01*
G01*
X72731250Y-54450000D01*
G75*
G02*
X72481250Y-54700000I-250000J0D01*
G01*
X71981250Y-54700000D01*
G75*
G02*
X71731250Y-54450000I0J250000D01*
G01*
G37*
G36*
G01*
X69831250Y-54450000D02*
X69831250Y-53500000D01*
G75*
G02*
X70081250Y-53250000I250000J0D01*
G01*
X70581250Y-53250000D01*
G75*
G02*
X70831250Y-53500000I0J-250000D01*
G01*
X70831250Y-54450000D01*
G75*
G02*
X70581250Y-54700000I-250000J0D01*
G01*
X70081250Y-54700000D01*
G75*
G02*
X69831250Y-54450000I0J250000D01*
G01*
G37*
%TD*%
%TO.C,C7*%
G36*
G01*
X84612500Y-40668750D02*
X83662500Y-40668750D01*
G75*
G02*
X83412500Y-40418750I0J250000D01*
G01*
X83412500Y-39918750D01*
G75*
G02*
X83662500Y-39668750I250000J0D01*
G01*
X84612500Y-39668750D01*
G75*
G02*
X84862500Y-39918750I0J-250000D01*
G01*
X84862500Y-40418750D01*
G75*
G02*
X84612500Y-40668750I-250000J0D01*
G01*
G37*
G36*
G01*
X84612500Y-42568750D02*
X83662500Y-42568750D01*
G75*
G02*
X83412500Y-42318750I0J250000D01*
G01*
X83412500Y-41818750D01*
G75*
G02*
X83662500Y-41568750I250000J0D01*
G01*
X84612500Y-41568750D01*
G75*
G02*
X84862500Y-41818750I0J-250000D01*
G01*
X84862500Y-42318750D01*
G75*
G02*
X84612500Y-42568750I-250000J0D01*
G01*
G37*
%TD*%
%TO.C,C6*%
G36*
G01*
X72837500Y-35400000D02*
X72837500Y-34450000D01*
G75*
G02*
X73087500Y-34200000I250000J0D01*
G01*
X73587500Y-34200000D01*
G75*
G02*
X73837500Y-34450000I0J-250000D01*
G01*
X73837500Y-35400000D01*
G75*
G02*
X73587500Y-35650000I-250000J0D01*
G01*
X73087500Y-35650000D01*
G75*
G02*
X72837500Y-35400000I0J250000D01*
G01*
G37*
G36*
G01*
X70937500Y-35400000D02*
X70937500Y-34450000D01*
G75*
G02*
X71187500Y-34200000I250000J0D01*
G01*
X71687500Y-34200000D01*
G75*
G02*
X71937500Y-34450000I0J-250000D01*
G01*
X71937500Y-35400000D01*
G75*
G02*
X71687500Y-35650000I-250000J0D01*
G01*
X71187500Y-35650000D01*
G75*
G02*
X70937500Y-35400000I0J250000D01*
G01*
G37*
%TD*%
%TO.C,C5*%
G36*
G01*
X77975000Y-53500000D02*
X77975000Y-54450000D01*
G75*
G02*
X77725000Y-54700000I-250000J0D01*
G01*
X77225000Y-54700000D01*
G75*
G02*
X76975000Y-54450000I0J250000D01*
G01*
X76975000Y-53500000D01*
G75*
G02*
X77225000Y-53250000I250000J0D01*
G01*
X77725000Y-53250000D01*
G75*
G02*
X77975000Y-53500000I0J-250000D01*
G01*
G37*
G36*
G01*
X79875000Y-53500000D02*
X79875000Y-54450000D01*
G75*
G02*
X79625000Y-54700000I-250000J0D01*
G01*
X79125000Y-54700000D01*
G75*
G02*
X78875000Y-54450000I0J250000D01*
G01*
X78875000Y-53500000D01*
G75*
G02*
X79125000Y-53250000I250000J0D01*
G01*
X79625000Y-53250000D01*
G75*
G02*
X79875000Y-53500000I0J-250000D01*
G01*
G37*
%TD*%
%TO.C,C4*%
G36*
G01*
X64768750Y-47812500D02*
X63818750Y-47812500D01*
G75*
G02*
X63568750Y-47562500I0J250000D01*
G01*
X63568750Y-47062500D01*
G75*
G02*
X63818750Y-46812500I250000J0D01*
G01*
X64768750Y-46812500D01*
G75*
G02*
X65018750Y-47062500I0J-250000D01*
G01*
X65018750Y-47562500D01*
G75*
G02*
X64768750Y-47812500I-250000J0D01*
G01*
G37*
G36*
G01*
X64768750Y-49712500D02*
X63818750Y-49712500D01*
G75*
G02*
X63568750Y-49462500I0J250000D01*
G01*
X63568750Y-48962500D01*
G75*
G02*
X63818750Y-48712500I250000J0D01*
G01*
X64768750Y-48712500D01*
G75*
G02*
X65018750Y-48962500I0J-250000D01*
G01*
X65018750Y-49462500D01*
G75*
G02*
X64768750Y-49712500I-250000J0D01*
G01*
G37*
%TD*%
%TO.C,C3*%
G36*
G01*
X74484250Y-27932000D02*
X73534250Y-27932000D01*
G75*
G02*
X73284250Y-27682000I0J250000D01*
G01*
X73284250Y-27182000D01*
G75*
G02*
X73534250Y-26932000I250000J0D01*
G01*
X74484250Y-26932000D01*
G75*
G02*
X74734250Y-27182000I0J-250000D01*
G01*
X74734250Y-27682000D01*
G75*
G02*
X74484250Y-27932000I-250000J0D01*
G01*
G37*
G36*
G01*
X74484250Y-29832000D02*
X73534250Y-29832000D01*
G75*
G02*
X73284250Y-29582000I0J250000D01*
G01*
X73284250Y-29082000D01*
G75*
G02*
X73534250Y-28832000I250000J0D01*
G01*
X74484250Y-28832000D01*
G75*
G02*
X74734250Y-29082000I0J-250000D01*
G01*
X74734250Y-29582000D01*
G75*
G02*
X74484250Y-29832000I-250000J0D01*
G01*
G37*
%TD*%
%TO.C,C2*%
G36*
G01*
X82932250Y-28866250D02*
X83882250Y-28866250D01*
G75*
G02*
X84132250Y-29116250I0J-250000D01*
G01*
X84132250Y-29616250D01*
G75*
G02*
X83882250Y-29866250I-250000J0D01*
G01*
X82932250Y-29866250D01*
G75*
G02*
X82682250Y-29616250I0J250000D01*
G01*
X82682250Y-29116250D01*
G75*
G02*
X82932250Y-28866250I250000J0D01*
G01*
G37*
G36*
G01*
X82932250Y-26966250D02*
X83882250Y-26966250D01*
G75*
G02*
X84132250Y-27216250I0J-250000D01*
G01*
X84132250Y-27716250D01*
G75*
G02*
X83882250Y-27966250I-250000J0D01*
G01*
X82932250Y-27966250D01*
G75*
G02*
X82682250Y-27716250I0J250000D01*
G01*
X82682250Y-27216250D01*
G75*
G02*
X82932250Y-26966250I250000J0D01*
G01*
G37*
%TD*%
%TO.C,C1*%
G36*
G01*
X55085000Y-37589000D02*
X54135000Y-37589000D01*
G75*
G02*
X53885000Y-37339000I0J250000D01*
G01*
X53885000Y-36839000D01*
G75*
G02*
X54135000Y-36589000I250000J0D01*
G01*
X55085000Y-36589000D01*
G75*
G02*
X55335000Y-36839000I0J-250000D01*
G01*
X55335000Y-37339000D01*
G75*
G02*
X55085000Y-37589000I-250000J0D01*
G01*
G37*
G36*
G01*
X55085000Y-39489000D02*
X54135000Y-39489000D01*
G75*
G02*
X53885000Y-39239000I0J250000D01*
G01*
X53885000Y-38739000D01*
G75*
G02*
X54135000Y-38489000I250000J0D01*
G01*
X55085000Y-38489000D01*
G75*
G02*
X55335000Y-38739000I0J-250000D01*
G01*
X55335000Y-39239000D01*
G75*
G02*
X55085000Y-39489000I-250000J0D01*
G01*
G37*
%TD*%
M02*
