%TF.GenerationSoftware,KiCad,Pcbnew,(5.1.10)-1*%
%TF.CreationDate,2021-12-23T21:02:22-05:00*%
%TF.ProjectId,Keypad,4b657970-6164-42e6-9b69-6361645f7063,rev?*%
%TF.SameCoordinates,Original*%
%TF.FileFunction,Soldermask,Bot*%
%TF.FilePolarity,Negative*%
%FSLAX46Y46*%
G04 Gerber Fmt 4.6, Leading zero omitted, Abs format (unit mm)*
G04 Created by KiCad (PCBNEW (5.1.10)-1) date 2021-12-23 21:02:22*
%MOMM*%
%LPD*%
G01*
G04 APERTURE LIST*
%ADD10R,1.800000X1.100000*%
%ADD11C,2.250000*%
%ADD12C,3.987800*%
%ADD13C,1.750000*%
%ADD14R,1.400000X1.200000*%
%ADD15R,2.350000X0.800000*%
%ADD16R,0.500000X1.400000*%
%ADD17R,0.550000X1.500000*%
%ADD18R,1.500000X0.550000*%
%ADD19R,1.200000X0.900000*%
G04 APERTURE END LIST*
D10*
%TO.C,SW1*%
X54558000Y-25709000D03*
X60758000Y-29409000D03*
X54558000Y-29409000D03*
X60758000Y-25709000D03*
%TD*%
D11*
%TO.C,K2*%
X99377500Y-47307500D03*
D12*
X96837500Y-52387500D03*
D11*
X93027500Y-49847500D03*
D13*
X91757500Y-52387500D03*
X101917500Y-52387500D03*
%TD*%
D14*
%TO.C,Y1*%
X79744750Y-27566250D03*
X77544750Y-27566250D03*
X77544750Y-29266250D03*
X79744750Y-29266250D03*
%TD*%
D15*
%TO.C,USB1*%
X55618000Y-61028000D03*
X60968000Y-61028000D03*
D16*
X56693000Y-55828000D03*
X57493000Y-55828000D03*
X58293000Y-55828000D03*
X59093000Y-55828000D03*
X59893000Y-55828000D03*
%TD*%
D17*
%TO.C,U1*%
X70612500Y-49959500D03*
X71412500Y-49959500D03*
X72212500Y-49959500D03*
X73012500Y-49959500D03*
X73812500Y-49959500D03*
X74612500Y-49959500D03*
X75412500Y-49959500D03*
X76212500Y-49959500D03*
X77012500Y-49959500D03*
X77812500Y-49959500D03*
X78612500Y-49959500D03*
D18*
X80312500Y-48259500D03*
X80312500Y-47459500D03*
X80312500Y-46659500D03*
X80312500Y-45859500D03*
X80312500Y-45059500D03*
X80312500Y-44259500D03*
X80312500Y-43459500D03*
X80312500Y-42659500D03*
X80312500Y-41859500D03*
X80312500Y-41059500D03*
X80312500Y-40259500D03*
D17*
X78612500Y-38559500D03*
X77812500Y-38559500D03*
X77012500Y-38559500D03*
X76212500Y-38559500D03*
X75412500Y-38559500D03*
X74612500Y-38559500D03*
X73812500Y-38559500D03*
X73012500Y-38559500D03*
X72212500Y-38559500D03*
X71412500Y-38559500D03*
X70612500Y-38559500D03*
D18*
X68912500Y-40259500D03*
X68912500Y-41059500D03*
X68912500Y-41859500D03*
X68912500Y-42659500D03*
X68912500Y-43459500D03*
X68912500Y-44259500D03*
X68912500Y-45059500D03*
X68912500Y-45859500D03*
X68912500Y-46659500D03*
X68912500Y-47459500D03*
X68912500Y-48259500D03*
%TD*%
%TO.C,R4*%
G36*
G01*
X84587501Y-48693750D02*
X83687499Y-48693750D01*
G75*
G02*
X83437500Y-48443751I0J249999D01*
G01*
X83437500Y-47918749D01*
G75*
G02*
X83687499Y-47668750I249999J0D01*
G01*
X84587501Y-47668750D01*
G75*
G02*
X84837500Y-47918749I0J-249999D01*
G01*
X84837500Y-48443751D01*
G75*
G02*
X84587501Y-48693750I-249999J0D01*
G01*
G37*
G36*
G01*
X84587501Y-50518750D02*
X83687499Y-50518750D01*
G75*
G02*
X83437500Y-50268751I0J249999D01*
G01*
X83437500Y-49743749D01*
G75*
G02*
X83687499Y-49493750I249999J0D01*
G01*
X84587501Y-49493750D01*
G75*
G02*
X84837500Y-49743749I0J-249999D01*
G01*
X84837500Y-50268751D01*
G75*
G02*
X84587501Y-50518750I-249999J0D01*
G01*
G37*
%TD*%
%TO.C,R3*%
G36*
G01*
X67964000Y-27628001D02*
X67964000Y-26727999D01*
G75*
G02*
X68213999Y-26478000I249999J0D01*
G01*
X68739001Y-26478000D01*
G75*
G02*
X68989000Y-26727999I0J-249999D01*
G01*
X68989000Y-27628001D01*
G75*
G02*
X68739001Y-27878000I-249999J0D01*
G01*
X68213999Y-27878000D01*
G75*
G02*
X67964000Y-27628001I0J249999D01*
G01*
G37*
G36*
G01*
X66139000Y-27628001D02*
X66139000Y-26727999D01*
G75*
G02*
X66388999Y-26478000I249999J0D01*
G01*
X66914001Y-26478000D01*
G75*
G02*
X67164000Y-26727999I0J-249999D01*
G01*
X67164000Y-27628001D01*
G75*
G02*
X66914001Y-27878000I-249999J0D01*
G01*
X66388999Y-27878000D01*
G75*
G02*
X66139000Y-27628001I0J249999D01*
G01*
G37*
%TD*%
%TO.C,R2*%
G36*
G01*
X54921999Y-51327000D02*
X55822001Y-51327000D01*
G75*
G02*
X56072000Y-51576999I0J-249999D01*
G01*
X56072000Y-52102001D01*
G75*
G02*
X55822001Y-52352000I-249999J0D01*
G01*
X54921999Y-52352000D01*
G75*
G02*
X54672000Y-52102001I0J249999D01*
G01*
X54672000Y-51576999D01*
G75*
G02*
X54921999Y-51327000I249999J0D01*
G01*
G37*
G36*
G01*
X54921999Y-49502000D02*
X55822001Y-49502000D01*
G75*
G02*
X56072000Y-49751999I0J-249999D01*
G01*
X56072000Y-50277001D01*
G75*
G02*
X55822001Y-50527000I-249999J0D01*
G01*
X54921999Y-50527000D01*
G75*
G02*
X54672000Y-50277001I0J249999D01*
G01*
X54672000Y-49751999D01*
G75*
G02*
X54921999Y-49502000I249999J0D01*
G01*
G37*
%TD*%
%TO.C,R1*%
G36*
G01*
X57842999Y-47112500D02*
X58743001Y-47112500D01*
G75*
G02*
X58993000Y-47362499I0J-249999D01*
G01*
X58993000Y-47887501D01*
G75*
G02*
X58743001Y-48137500I-249999J0D01*
G01*
X57842999Y-48137500D01*
G75*
G02*
X57593000Y-47887501I0J249999D01*
G01*
X57593000Y-47362499D01*
G75*
G02*
X57842999Y-47112500I249999J0D01*
G01*
G37*
G36*
G01*
X57842999Y-45287500D02*
X58743001Y-45287500D01*
G75*
G02*
X58993000Y-45537499I0J-249999D01*
G01*
X58993000Y-46062501D01*
G75*
G02*
X58743001Y-46312500I-249999J0D01*
G01*
X57842999Y-46312500D01*
G75*
G02*
X57593000Y-46062501I0J249999D01*
G01*
X57593000Y-45537499D01*
G75*
G02*
X57842999Y-45287500I249999J0D01*
G01*
G37*
%TD*%
D11*
%TO.C,K4*%
X118427500Y-47307500D03*
D12*
X115887500Y-52387500D03*
D11*
X112077500Y-49847500D03*
D13*
X110807500Y-52387500D03*
X120967500Y-52387500D03*
%TD*%
D11*
%TO.C,K3*%
X118427500Y-28257500D03*
D12*
X115887500Y-33337500D03*
D11*
X112077500Y-30797500D03*
D13*
X110807500Y-33337500D03*
X120967500Y-33337500D03*
%TD*%
D11*
%TO.C,K1*%
X99377500Y-28257500D03*
D12*
X96837500Y-33337500D03*
D11*
X93027500Y-30797500D03*
D13*
X91757500Y-33337500D03*
X101917500Y-33337500D03*
%TD*%
D19*
%TO.C,D4*%
X123825000Y-50737500D03*
X123825000Y-54037500D03*
%TD*%
%TO.C,D3*%
X123825000Y-31687500D03*
X123825000Y-34987500D03*
%TD*%
%TO.C,D2*%
X104775000Y-50737500D03*
X104775000Y-54037500D03*
%TD*%
%TO.C,D1*%
X105029000Y-31941500D03*
X105029000Y-35241500D03*
%TD*%
%TO.C,C8*%
G36*
G01*
X71731250Y-54450000D02*
X71731250Y-53500000D01*
G75*
G02*
X71981250Y-53250000I250000J0D01*
G01*
X72481250Y-53250000D01*
G75*
G02*
X72731250Y-53500000I0J-250000D01*
G01*
X72731250Y-54450000D01*
G75*
G02*
X72481250Y-54700000I-250000J0D01*
G01*
X71981250Y-54700000D01*
G75*
G02*
X71731250Y-54450000I0J250000D01*
G01*
G37*
G36*
G01*
X69831250Y-54450000D02*
X69831250Y-53500000D01*
G75*
G02*
X70081250Y-53250000I250000J0D01*
G01*
X70581250Y-53250000D01*
G75*
G02*
X70831250Y-53500000I0J-250000D01*
G01*
X70831250Y-54450000D01*
G75*
G02*
X70581250Y-54700000I-250000J0D01*
G01*
X70081250Y-54700000D01*
G75*
G02*
X69831250Y-54450000I0J250000D01*
G01*
G37*
%TD*%
%TO.C,C7*%
G36*
G01*
X84612500Y-40668750D02*
X83662500Y-40668750D01*
G75*
G02*
X83412500Y-40418750I0J250000D01*
G01*
X83412500Y-39918750D01*
G75*
G02*
X83662500Y-39668750I250000J0D01*
G01*
X84612500Y-39668750D01*
G75*
G02*
X84862500Y-39918750I0J-250000D01*
G01*
X84862500Y-40418750D01*
G75*
G02*
X84612500Y-40668750I-250000J0D01*
G01*
G37*
G36*
G01*
X84612500Y-42568750D02*
X83662500Y-42568750D01*
G75*
G02*
X83412500Y-42318750I0J250000D01*
G01*
X83412500Y-41818750D01*
G75*
G02*
X83662500Y-41568750I250000J0D01*
G01*
X84612500Y-41568750D01*
G75*
G02*
X84862500Y-41818750I0J-250000D01*
G01*
X84862500Y-42318750D01*
G75*
G02*
X84612500Y-42568750I-250000J0D01*
G01*
G37*
%TD*%
%TO.C,C6*%
G36*
G01*
X72837500Y-35400000D02*
X72837500Y-34450000D01*
G75*
G02*
X73087500Y-34200000I250000J0D01*
G01*
X73587500Y-34200000D01*
G75*
G02*
X73837500Y-34450000I0J-250000D01*
G01*
X73837500Y-35400000D01*
G75*
G02*
X73587500Y-35650000I-250000J0D01*
G01*
X73087500Y-35650000D01*
G75*
G02*
X72837500Y-35400000I0J250000D01*
G01*
G37*
G36*
G01*
X70937500Y-35400000D02*
X70937500Y-34450000D01*
G75*
G02*
X71187500Y-34200000I250000J0D01*
G01*
X71687500Y-34200000D01*
G75*
G02*
X71937500Y-34450000I0J-250000D01*
G01*
X71937500Y-35400000D01*
G75*
G02*
X71687500Y-35650000I-250000J0D01*
G01*
X71187500Y-35650000D01*
G75*
G02*
X70937500Y-35400000I0J250000D01*
G01*
G37*
%TD*%
%TO.C,C5*%
G36*
G01*
X77975000Y-53500000D02*
X77975000Y-54450000D01*
G75*
G02*
X77725000Y-54700000I-250000J0D01*
G01*
X77225000Y-54700000D01*
G75*
G02*
X76975000Y-54450000I0J250000D01*
G01*
X76975000Y-53500000D01*
G75*
G02*
X77225000Y-53250000I250000J0D01*
G01*
X77725000Y-53250000D01*
G75*
G02*
X77975000Y-53500000I0J-250000D01*
G01*
G37*
G36*
G01*
X79875000Y-53500000D02*
X79875000Y-54450000D01*
G75*
G02*
X79625000Y-54700000I-250000J0D01*
G01*
X79125000Y-54700000D01*
G75*
G02*
X78875000Y-54450000I0J250000D01*
G01*
X78875000Y-53500000D01*
G75*
G02*
X79125000Y-53250000I250000J0D01*
G01*
X79625000Y-53250000D01*
G75*
G02*
X79875000Y-53500000I0J-250000D01*
G01*
G37*
%TD*%
%TO.C,C4*%
G36*
G01*
X64768750Y-47812500D02*
X63818750Y-47812500D01*
G75*
G02*
X63568750Y-47562500I0J250000D01*
G01*
X63568750Y-47062500D01*
G75*
G02*
X63818750Y-46812500I250000J0D01*
G01*
X64768750Y-46812500D01*
G75*
G02*
X65018750Y-47062500I0J-250000D01*
G01*
X65018750Y-47562500D01*
G75*
G02*
X64768750Y-47812500I-250000J0D01*
G01*
G37*
G36*
G01*
X64768750Y-49712500D02*
X63818750Y-49712500D01*
G75*
G02*
X63568750Y-49462500I0J250000D01*
G01*
X63568750Y-48962500D01*
G75*
G02*
X63818750Y-48712500I250000J0D01*
G01*
X64768750Y-48712500D01*
G75*
G02*
X65018750Y-48962500I0J-250000D01*
G01*
X65018750Y-49462500D01*
G75*
G02*
X64768750Y-49712500I-250000J0D01*
G01*
G37*
%TD*%
%TO.C,C3*%
G36*
G01*
X74484250Y-27932000D02*
X73534250Y-27932000D01*
G75*
G02*
X73284250Y-27682000I0J250000D01*
G01*
X73284250Y-27182000D01*
G75*
G02*
X73534250Y-26932000I250000J0D01*
G01*
X74484250Y-26932000D01*
G75*
G02*
X74734250Y-27182000I0J-250000D01*
G01*
X74734250Y-27682000D01*
G75*
G02*
X74484250Y-27932000I-250000J0D01*
G01*
G37*
G36*
G01*
X74484250Y-29832000D02*
X73534250Y-29832000D01*
G75*
G02*
X73284250Y-29582000I0J250000D01*
G01*
X73284250Y-29082000D01*
G75*
G02*
X73534250Y-28832000I250000J0D01*
G01*
X74484250Y-28832000D01*
G75*
G02*
X74734250Y-29082000I0J-250000D01*
G01*
X74734250Y-29582000D01*
G75*
G02*
X74484250Y-29832000I-250000J0D01*
G01*
G37*
%TD*%
%TO.C,C2*%
G36*
G01*
X82932250Y-28866250D02*
X83882250Y-28866250D01*
G75*
G02*
X84132250Y-29116250I0J-250000D01*
G01*
X84132250Y-29616250D01*
G75*
G02*
X83882250Y-29866250I-250000J0D01*
G01*
X82932250Y-29866250D01*
G75*
G02*
X82682250Y-29616250I0J250000D01*
G01*
X82682250Y-29116250D01*
G75*
G02*
X82932250Y-28866250I250000J0D01*
G01*
G37*
G36*
G01*
X82932250Y-26966250D02*
X83882250Y-26966250D01*
G75*
G02*
X84132250Y-27216250I0J-250000D01*
G01*
X84132250Y-27716250D01*
G75*
G02*
X83882250Y-27966250I-250000J0D01*
G01*
X82932250Y-27966250D01*
G75*
G02*
X82682250Y-27716250I0J250000D01*
G01*
X82682250Y-27216250D01*
G75*
G02*
X82932250Y-26966250I250000J0D01*
G01*
G37*
%TD*%
%TO.C,C1*%
G36*
G01*
X55085000Y-37589000D02*
X54135000Y-37589000D01*
G75*
G02*
X53885000Y-37339000I0J250000D01*
G01*
X53885000Y-36839000D01*
G75*
G02*
X54135000Y-36589000I250000J0D01*
G01*
X55085000Y-36589000D01*
G75*
G02*
X55335000Y-36839000I0J-250000D01*
G01*
X55335000Y-37339000D01*
G75*
G02*
X55085000Y-37589000I-250000J0D01*
G01*
G37*
G36*
G01*
X55085000Y-39489000D02*
X54135000Y-39489000D01*
G75*
G02*
X53885000Y-39239000I0J250000D01*
G01*
X53885000Y-38739000D01*
G75*
G02*
X54135000Y-38489000I250000J0D01*
G01*
X55085000Y-38489000D01*
G75*
G02*
X55335000Y-38739000I0J-250000D01*
G01*
X55335000Y-39239000D01*
G75*
G02*
X55085000Y-39489000I-250000J0D01*
G01*
G37*
%TD*%
M02*
