%TF.GenerationSoftware,KiCad,Pcbnew,(5.1.10)-1*%
%TF.CreationDate,2021-12-23T21:02:22-05:00*%
%TF.ProjectId,Keypad,4b657970-6164-42e6-9b69-6361645f7063,rev?*%
%TF.SameCoordinates,Original*%
%TF.FileFunction,Copper,L1,Top*%
%TF.FilePolarity,Positive*%
%FSLAX46Y46*%
G04 Gerber Fmt 4.6, Leading zero omitted, Abs format (unit mm)*
G04 Created by KiCad (PCBNEW (5.1.10)-1) date 2021-12-23 21:02:22*
%MOMM*%
%LPD*%
G01*
G04 APERTURE LIST*
%TA.AperFunction,ComponentPad*%
%ADD10C,2.250000*%
%TD*%
%TA.AperFunction,ViaPad*%
%ADD11C,0.800000*%
%TD*%
%TA.AperFunction,Conductor*%
%ADD12C,0.250000*%
%TD*%
%TA.AperFunction,Conductor*%
%ADD13C,0.381000*%
%TD*%
G04 APERTURE END LIST*
D10*
%TO.P,K2,2*%
%TO.N,Net-(D2-Pad2)*%
X99377500Y-47307500D03*
%TO.P,K2,1*%
%TO.N,COL0*%
X93027500Y-49847500D03*
%TD*%
%TO.P,USB1,7*%
%TO.N,N/C*%
%TA.AperFunction,ComponentPad*%
G36*
G01*
X55193000Y-56978000D02*
X55193000Y-59478000D01*
G75*
G02*
X54643000Y-60028000I-550000J0D01*
G01*
X54643000Y-60028000D01*
G75*
G02*
X54093000Y-59478000I0J550000D01*
G01*
X54093000Y-56978000D01*
G75*
G02*
X54643000Y-56428000I550000J0D01*
G01*
X54643000Y-56428000D01*
G75*
G02*
X55193000Y-56978000I0J-550000D01*
G01*
G37*
%TD.AperFunction*%
%TO.P,USB1,6*%
%TA.AperFunction,ComponentPad*%
G36*
G01*
X62493000Y-56978000D02*
X62493000Y-59478000D01*
G75*
G02*
X61943000Y-60028000I-550000J0D01*
G01*
X61943000Y-60028000D01*
G75*
G02*
X61393000Y-59478000I0J550000D01*
G01*
X61393000Y-56978000D01*
G75*
G02*
X61943000Y-56428000I550000J0D01*
G01*
X61943000Y-56428000D01*
G75*
G02*
X62493000Y-56978000I0J-550000D01*
G01*
G37*
%TD.AperFunction*%
%TD*%
%TO.P,K4,2*%
%TO.N,Net-(D4-Pad2)*%
X118427500Y-47307500D03*
%TO.P,K4,1*%
%TO.N,COL1*%
X112077500Y-49847500D03*
%TD*%
%TO.P,K3,2*%
%TO.N,Net-(D3-Pad2)*%
X118427500Y-28257500D03*
%TO.P,K3,1*%
%TO.N,COL1*%
X112077500Y-30797500D03*
%TD*%
%TO.P,K1,2*%
%TO.N,Net-(D1-Pad2)*%
X99377500Y-28257500D03*
%TO.P,K1,1*%
%TO.N,COL0*%
X93027500Y-30797500D03*
%TD*%
D11*
%TO.N,Net-(C1-Pad1)*%
X55880000Y-44196000D03*
X66294000Y-44196000D03*
%TO.N,VCC*%
X82931000Y-33401000D03*
X82931000Y-52197000D03*
X82931000Y-52197000D03*
X55626000Y-53594000D03*
X62865000Y-53594000D03*
%TO.N,Net-(R1-Pad1)*%
X60833000Y-45847000D03*
X66294000Y-45847000D03*
%TO.N,Net-(R2-Pad1)*%
X55880000Y-46736000D03*
X66294000Y-46847003D03*
%TD*%
D12*
%TO.N,Net-(C1-Pad1)*%
X55880000Y-44196000D02*
X66294000Y-44196000D01*
D13*
%TO.N,VCC*%
X55626000Y-53594000D02*
X62865000Y-53594000D01*
X82931000Y-33401000D02*
X82931000Y-37973000D01*
X82931000Y-37973000D02*
X82931000Y-52197000D01*
X85471000Y-43053000D02*
X85471000Y-57277000D01*
X82931000Y-37973000D02*
X82931000Y-40513000D01*
X82931000Y-40513000D02*
X85471000Y-43053000D01*
X68326000Y-59055000D02*
X62865000Y-53594000D01*
X68326000Y-59055000D02*
X83693000Y-59055000D01*
X83693000Y-59055000D02*
X85471000Y-57277000D01*
D12*
%TO.N,Net-(R1-Pad1)*%
X60833000Y-45847000D02*
X66294000Y-45847000D01*
%TO.N,Net-(R2-Pad1)*%
X66182997Y-46736000D02*
X66294000Y-46847003D01*
X55880000Y-46736000D02*
X66182997Y-46736000D01*
%TO.N,COL1*%
X112077500Y-49847500D02*
X111918750Y-50006250D01*
X112077500Y-49847500D02*
X112077500Y-30797500D01*
%TO.N,COL0*%
X93027500Y-49847500D02*
X93027500Y-30797500D01*
%TD*%
M02*
